<svg width="24" height="24" viewBox="0 0 24 24" xmlns="http://www.w3.org/2000/svg">
<path d="M22.9498 14.0992C22.871 14.1583 22.7813 14.2013 22.6859 14.2257C22.5905 14.2502 22.4912 14.2556 22.3937 14.2417C22.2962 14.2277 22.2024 14.1947 22.1177 14.1445C22.0329 14.0944 21.9589 14.028 21.8998 13.9492C21.4477 13.3416 20.8593 12.8486 20.182 12.5099C19.5046 12.1712 18.7571 11.9963 17.9998 11.9992C17.8523 11.9992 17.7081 11.9557 17.5852 11.8741C17.4623 11.7926 17.3662 11.6766 17.3089 11.5408C17.2699 11.4485 17.2499 11.3493 17.2499 11.2492C17.2499 11.149 17.2699 11.0499 17.3089 10.9576C17.3662 10.8217 17.4623 10.7058 17.5852 10.6242C17.7081 10.5427 17.8523 10.4992 17.9998 10.4992C18.4206 10.4992 18.833 10.3811 19.1901 10.1584C19.5472 9.93579 19.8347 9.61746 20.0199 9.2396C20.2051 8.86175 20.2807 8.43952 20.238 8.02087C20.1953 7.60223 20.036 7.20395 19.7783 6.87127C19.5206 6.5386 19.1748 6.28487 18.7801 6.13889C18.3854 5.99292 17.9577 5.96056 17.5455 6.04549C17.1334 6.13041 16.7533 6.32923 16.4484 6.61934C16.1436 6.90945 15.9262 7.27924 15.821 7.68669C15.7964 7.7821 15.7532 7.87173 15.694 7.95046C15.6347 8.02919 15.5605 8.09547 15.4757 8.14553C15.3908 8.19559 15.2969 8.22843 15.1993 8.2422C15.1017 8.25596 15.0024 8.25038 14.907 8.22575C14.8116 8.20113 14.7219 8.15796 14.6432 8.09869C14.5645 8.03943 14.4982 7.96524 14.4481 7.88037C14.3981 7.79549 14.3652 7.70158 14.3515 7.60401C14.3377 7.50643 14.3433 7.4071 14.3679 7.31169C14.5139 6.74667 14.7898 6.22353 15.1736 5.7839C15.5574 5.34426 16.0385 5.00026 16.5786 4.77927C17.1187 4.55828 17.703 4.4664 18.2848 4.51094C18.8667 4.55548 19.4302 4.73521 19.9304 5.03583C20.4306 5.33645 20.8537 5.74966 21.1661 6.24258C21.4785 6.73551 21.6715 7.29454 21.7299 7.8752C21.7882 8.45586 21.7102 9.04212 21.5021 9.58733C21.2939 10.1325 20.9615 10.6217 20.531 11.0158C21.5509 11.4573 22.4374 12.158 23.1026 13.0483C23.1617 13.1272 23.2046 13.2171 23.2289 13.3127C23.2532 13.4083 23.2584 13.5078 23.2442 13.6054C23.23 13.703 23.1967 13.7969 23.1462 13.8816C23.0957 13.9664 23.0289 14.0403 22.9498 14.0992ZM17.8985 19.8742C17.9528 19.9596 17.9892 20.055 18.0057 20.1548C18.0221 20.2546 18.0181 20.3567 17.9941 20.455C17.97 20.5532 17.9263 20.6456 17.8656 20.7265C17.8049 20.8074 17.7285 20.8753 17.6409 20.9259C17.5534 20.9765 17.4565 21.0089 17.356 21.0211C17.2556 21.0333 17.1538 21.025 17.0566 20.9968C16.9595 20.9687 16.8691 20.9211 16.7908 20.8571C16.7125 20.793 16.6479 20.7138 16.601 20.6242C16.1286 19.8242 15.4557 19.1612 14.6488 18.7006C13.8419 18.2401 12.9289 17.9978 11.9998 17.9978C11.0707 17.9978 10.1577 18.2401 9.35077 18.7006C8.54388 19.1612 7.871 19.8242 7.39855 20.6242C7.35166 20.7138 7.28713 20.793 7.20883 20.8571C7.13054 20.9211 7.04009 20.9687 6.94295 20.9968C6.8458 21.025 6.74396 21.0333 6.64355 21.0211C6.54313 21.0089 6.44622 20.9765 6.35865 20.9259C6.27108 20.8753 6.19465 20.8074 6.13396 20.7265C6.07327 20.6456 6.02958 20.5532 6.00552 20.455C5.98145 20.3567 5.97751 20.2546 5.99393 20.1548C6.01034 20.055 6.04678 19.9596 6.10105 19.8742C6.82817 18.6249 7.93685 17.6417 9.26417 17.0692C8.51729 16.4973 7.96838 15.7058 7.69461 14.8059C7.42083 13.906 7.43595 12.9429 7.73784 12.052C8.03973 11.1611 8.61321 10.3872 9.37767 9.83907C10.1421 9.29096 11.0591 8.99619 11.9998 8.99619C12.9404 8.99619 13.8575 9.29096 14.6219 9.83907C15.3864 10.3872 15.9599 11.1611 16.2617 12.052C16.5636 12.9429 16.5788 13.906 16.305 14.8059C16.0312 15.7058 15.4823 16.4973 14.7354 17.0692C16.0627 17.6417 17.1714 18.6249 17.8985 19.8742ZM11.9998 16.4992C12.5931 16.4992 13.1732 16.3232 13.6665 15.9936C14.1599 15.664 14.5444 15.1954 14.7714 14.6472C14.9985 14.0991 15.0579 13.4959 14.9422 12.9139C14.8264 12.332 14.5407 11.7974 14.1211 11.3779C13.7016 10.9583 13.167 10.6726 12.5851 10.5568C12.0031 10.4411 11.3999 10.5005 10.8517 10.7276C10.3036 10.9546 9.83503 11.3391 9.50539 11.8325C9.17574 12.3258 8.9998 12.9058 8.9998 13.4992C8.9998 14.2948 9.31587 15.0579 9.87848 15.6205C10.4411 16.1831 11.2041 16.4992 11.9998 16.4992ZM6.7498 11.2492C6.7498 11.0503 6.67078 10.8595 6.53013 10.7189C6.38947 10.5782 6.19871 10.4992 5.9998 10.4992C5.57898 10.4992 5.1666 10.3811 4.80952 10.1584C4.45243 9.93579 4.16494 9.61746 3.9797 9.2396C3.79446 8.86175 3.7189 8.43952 3.76161 8.02087C3.80431 7.60223 3.96356 7.20395 4.22127 6.87127C4.47898 6.5386 4.82483 6.28487 5.21951 6.13889C5.6142 5.99292 6.04192 5.96056 6.45408 6.04549C6.86624 6.13041 7.24632 6.32923 7.55115 6.61934C7.85598 6.90945 8.07334 7.27924 8.17855 7.68669C8.22827 7.87939 8.35251 8.04444 8.52393 8.14553C8.69535 8.24662 8.89991 8.27548 9.09261 8.22575C9.2853 8.17602 9.45035 8.05179 9.55145 7.88037C9.65254 7.70895 9.6814 7.50439 9.63167 7.31169C9.48565 6.74667 9.20977 6.22353 8.82599 5.7839C8.44221 5.34426 7.96112 5.00026 7.421 4.77927C6.88088 4.55828 6.29664 4.4664 5.71476 4.51094C5.13288 4.55548 4.56942 4.73521 4.06923 5.03583C3.56903 5.33645 3.1459 5.74966 2.8335 6.24258C2.5211 6.73551 2.32806 7.29454 2.26974 7.8752C2.21141 8.45586 2.28941 9.04212 2.49752 9.58733C2.70564 10.1325 3.03813 10.6217 3.46855 11.0158C2.44975 11.4577 1.56422 12.1584 0.899796 13.0483C0.780324 13.2074 0.72896 13.4075 0.757003 13.6045C0.785045 13.8015 0.890197 13.9792 1.04933 14.0987C1.20846 14.2182 1.40853 14.2696 1.60553 14.2415C1.80253 14.2135 1.98032 14.1083 2.0998 13.9492C2.55185 13.3416 3.14025 12.8486 3.81763 12.5099C4.49502 12.1712 5.24246 11.9963 5.9998 11.9992C6.19871 11.9992 6.38947 11.9202 6.53013 11.7795C6.67078 11.6389 6.7498 11.4481 6.7498 11.2492Z" />
</svg>
