<svg width="25" height="24" viewBox="0 0 25 24" fill="black" xmlns="http://www.w3.org/2000/svg">
<path d="M11.3592 12.9C6.65591 12.9 2.79619 16.507 2.39375 21.1063C2.34561 21.6565 2.75257 22.1416 3.30273 22.1897C3.85292 22.2379 4.33799 21.8308 4.38613 21.2807C4.69899 17.7053 7.70203 14.9 11.3592 14.9C11.7782 14.9 12.1879 14.9367 12.5854 15.0068C13.1292 15.1028 13.6479 14.7398 13.7439 14.1959C13.8399 13.652 13.4769 13.1333 12.933 13.0373C12.4213 12.947 11.8953 12.9 11.3592 12.9ZM17.7878 14.0215C17.4095 13.6191 16.7766 13.5996 16.3742 13.9779L12.9242 17.2214C12.7232 17.4104 12.6092 17.6741 12.6092 17.95C12.6092 18.2259 12.7232 18.4896 12.9242 18.6786L16.3742 21.9221C16.7766 22.3004 17.4095 22.2809 17.7878 21.8785C18.1661 21.4761 18.1465 20.8432 17.7441 20.4649L16.1328 18.95H21.4092C21.9615 18.95 22.4092 18.5023 22.4092 17.95C22.4092 17.3977 21.9615 16.95 21.4092 16.95H16.1328L17.7441 15.4351C18.1465 15.0568 18.1661 14.4239 17.7878 14.0215ZM8.35918 7C8.35918 5.34315 9.70232 4 11.3592 4C13.016 4 14.3592 5.34315 14.3592 7C14.3592 8.65685 13.016 10 11.3592 10C9.70232 10 8.35918 8.65685 8.35918 7ZM6.35918 7C6.35918 9.76142 8.59776 12 11.3592 12C14.1206 12 16.3592 9.76142 16.3592 7C16.3592 4.23858 14.1206 2 11.3592 2C8.59776 2 6.35918 4.23858 6.35918 7Z"/>
</svg>
