<svg width="23" height="24" viewBox="0 0 23 24" xmlns="http://www.w3.org/2000/svg">
<path d="M12.6748 7.5L9.1543 11.0205H18.2695V12.9795H9.1543L12.6748 16.5L11.29 17.8848L5.40527 12L11.29 6.11523L12.6748 7.5Z" />
<path fill-rule="evenodd" clip-rule="evenodd" d="M11.79 2.02051C17.3015 2.02051 21.7695 6.48852 21.7695 12C21.7695 17.5115 17.3015 21.9795 11.79 21.9795C6.27856 21.9795 1.81055 17.5115 1.81055 12C1.81055 6.48852 6.27856 2.02051 11.79 2.02051ZM11.79 3.97949C7.36039 3.97949 3.76953 7.57035 3.76953 12C3.76953 16.4296 7.36039 20.0205 11.79 20.0205C16.2197 20.0205 19.8105 16.4296 19.8105 12C19.8105 7.57035 16.2197 3.97949 11.79 3.97949Z" />
</svg>
