<svg width="21" height="21" viewBox="0 0 21 21" fill="none" xmlns="http://www.w3.org/2000/svg">
<path d="M9.1502 10.9C4.44693 10.9 0.587208 14.507 0.184765 19.1063C0.136625 19.6565 0.543589 20.1416 1.09375 20.1897C1.64393 20.2379 2.12901 19.8308 2.17715 19.2807C2.49 15.7053 5.49305 12.9 9.1502 12.9C9.56926 12.9 9.97892 12.9367 10.3764 13.0068C10.9202 13.1028 11.439 12.7398 11.535 12.1959C11.631 11.652 11.2679 11.1333 10.724 11.0373C10.2123 10.947 9.68632 10.9 9.1502 10.9ZM15.5788 12.0215C15.2005 11.6191 14.5676 11.5996 14.1652 11.9779L10.7152 15.2214C10.5142 15.4104 10.4002 15.6741 10.4002 15.95C10.4002 16.2259 10.5142 16.4896 10.7152 16.6786L14.1652 19.9221C14.5676 20.3004 15.2005 20.2809 15.5788 19.8785C15.9571 19.4761 15.9375 18.8432 15.5352 18.4649L13.9238 16.95H19.2002C19.7525 16.95 20.2002 16.5023 20.2002 15.95C20.2002 15.3977 19.7525 14.95 19.2002 14.95H13.9238L15.5352 13.4351C15.9375 13.0568 15.9571 12.4239 15.5788 12.0215ZM6.1502 5C6.1502 3.34315 7.49334 2 9.1502 2C10.807 2 12.1502 3.34315 12.1502 5C12.1502 6.65685 10.807 8 9.1502 8C7.49334 8 6.1502 6.65685 6.1502 5ZM4.15019 5C4.15019 7.76142 6.38877 10 9.1502 10C11.9116 10 14.1502 7.76142 14.1502 5C14.1502 2.23858 11.9116 0 9.1502 0C6.38877 0 4.15019 2.23858 4.15019 5Z" fill="black"/>
</svg>