<svg width="24" height="24" viewBox="0 0 24 24" xmlns="http://www.w3.org/2000/svg">
<g clip-path="url(#clip0_98_10386)">
<path d="M23.7806 12.53L21.5306 14.78C21.4609 14.8497 21.3782 14.9051 21.2871 14.9428C21.1961 14.9806 21.0985 15 20.9999 15C20.9014 15 20.8038 14.9806 20.7127 14.9428C20.6217 14.9051 20.539 14.8497 20.4693 14.78L18.2193 12.53C18.0786 12.3893 17.9995 12.1984 17.9995 11.9994C17.9995 11.8004 18.0786 11.6095 18.2193 11.4688C18.36 11.328 18.5509 11.249 18.7499 11.249C18.949 11.249 19.1398 11.328 19.2806 11.4688L20.2499 12.4391V11.9994C20.2508 10.2525 19.6971 8.55039 18.6687 7.13831C17.6402 5.72623 16.1901 4.67706 14.5271 4.14193C12.8642 3.60681 11.0743 3.61335 9.41537 4.16062C7.7564 4.70789 6.31397 5.76764 5.29587 7.1872C5.17975 7.34882 5.00419 7.45769 4.8078 7.48986C4.61142 7.52204 4.4103 7.47488 4.24868 7.35877C4.08706 7.24265 3.97819 7.06709 3.94602 6.8707C3.91384 6.67432 3.961 6.47319 4.07712 6.31158C5.28039 4.63394 6.98513 3.38156 8.94576 2.73484C10.9064 2.08813 13.0217 2.08047 14.987 2.71297C16.9522 3.34547 18.666 4.58548 19.8814 6.25436C21.0968 7.92325 21.751 9.93485 21.7499 11.9994V12.4391L22.7193 11.4688C22.86 11.328 23.0509 11.249 23.2499 11.249C23.449 11.249 23.6398 11.328 23.7806 11.4688C23.9213 11.6095 24.0003 11.8004 24.0003 11.9994C24.0003 12.1984 23.9213 12.3893 23.7806 12.53ZM19.9199 17.6863C18.7163 19.3626 17.0118 20.6139 15.0518 21.2598C13.0918 21.9058 10.9774 21.9132 9.0129 21.281C7.04842 20.6487 5.33521 19.4094 4.1199 17.7415C2.90459 16.0736 2.24985 14.0631 2.24993 11.9994V11.5597L1.28055 12.53C1.13982 12.6707 0.948952 12.7498 0.749929 12.7498C0.550906 12.7498 0.360034 12.6707 0.219304 12.53C0.0785733 12.3893 -0.000488281 12.1984 -0.000488281 11.9994C-0.000488281 11.8004 0.0785733 11.6095 0.219304 11.4688L2.4693 9.21877C2.53896 9.14903 2.62168 9.09371 2.71272 9.05597C2.80377 9.01823 2.90137 8.9988 2.99993 8.9988C3.09849 8.9988 3.19609 9.01823 3.28713 9.05597C3.37818 9.09371 3.4609 9.14903 3.53055 9.21877L5.78055 11.4688C5.92128 11.6095 6.00035 11.8004 6.00035 11.9994C6.00035 12.1984 5.92128 12.3893 5.78055 12.53C5.63982 12.6707 5.44895 12.7498 5.24993 12.7498C5.05091 12.7498 4.86003 12.6707 4.7193 12.53L3.74993 11.5597V11.9994C3.74815 14.0189 4.49041 15.9684 5.83493 17.4753C6.6714 16.2632 7.84757 15.3255 9.21555 14.78C8.48073 14.2012 7.94452 13.4079 7.6815 12.5102C7.41847 11.6126 7.44171 10.6553 7.74798 9.77146C8.05425 8.88764 8.62832 8.12122 9.39036 7.57879C10.1524 7.03635 11.0645 6.74487 11.9999 6.74487C12.9353 6.74487 13.8475 7.03635 14.6095 7.57879C15.3715 8.12122 15.9456 8.88764 16.2519 9.77146C16.5581 10.6553 16.5814 11.6126 16.3184 12.5102C16.0553 13.4079 15.5191 14.2012 14.7843 14.78C16.1535 15.3256 17.3305 16.2644 18.1668 17.4781C18.3564 17.2652 18.5351 17.0427 18.7021 16.8116C18.8182 16.65 18.9938 16.5411 19.1902 16.5089C19.3866 16.4767 19.5877 16.5239 19.7493 16.64C19.9109 16.7561 20.0198 16.9317 20.052 17.1281C20.0841 17.3245 20.037 17.5256 19.9209 17.6872L19.9199 17.6863ZM11.9999 14.2494C12.5933 14.2494 13.1733 14.0734 13.6666 13.7438C14.16 13.4142 14.5445 12.9456 14.7716 12.3974C14.9986 11.8493 15.058 11.2461 14.9423 10.6641C14.8265 10.0822 14.5408 9.54763 14.1212 9.12807C13.7017 8.70851 13.1671 8.42279 12.5852 8.30703C12.0033 8.19128 11.4001 8.25069 10.8519 8.47775C10.3037 8.70481 9.83516 9.08933 9.50552 9.58268C9.17588 10.076 8.99993 10.656 8.99993 11.2494C8.99993 12.045 9.316 12.8081 9.87861 13.3707C10.4412 13.9333 11.2043 14.2494 11.9999 14.2494ZM11.9999 20.2494C13.8303 20.247 15.6082 19.6373 17.0549 18.516C16.5124 17.6674 15.7649 16.9691 14.8815 16.4854C13.9981 16.0017 13.0071 15.7481 11.9999 15.7481C10.9928 15.7481 10.0018 16.0017 9.11835 16.4854C8.23493 16.9691 7.48749 17.6674 6.94493 18.516C8.38945 19.6414 10.1688 20.2515 11.9999 20.2494Z" />
</g>
<defs>
<clipPath id="clip0_98_10386">
<rect width="24" height="24" />
</clipPath>
</defs>
</svg>
